<?xml version="1.0" encoding="utf-8"?>
<!-- Generator: Adobe Illustrator 24.1.0, SVG Export Plug-In . SVG Version: 6.00 Build 0)  -->
<svg version="1.1" id="Layer_1"
  xmlns="http://www.w3.org/2000/svg"
  xmlns:xlink="http://www.w3.org/1999/xlink" x="0px" y="0px" fill="#fff" viewBox="0 0 30 30">
  <path d="M1.095 9.2C1.272 9.168-.21.085 7.69.003V0h.621v.002c7.9.082 6.417 9.165 6.594 9.199.177.033 1.084.552.243 1.161-.697.504-.558 1.071-1.012 1.917-.453.845-1.419.288-2.366.608-.946.322-.236 1.458-.808 2.253-.547.761-2.772.868-2.962.86-.19.008-2.415-.099-2.962-.86-.572-.795.138-1.931-.808-2.253-.947-.32-1.913.237-2.366-.608-.454-.846-.315-1.412-1.012-1.917-.84-.609.066-1.128.243-1.161zm7.729.305c.218 1.39 2.983.857 3.522.474.583-.416.583-2.39-.315-2.526-.897-.135-3.342 1.195-3.207 2.052zm-.97 3.157c.076-.083.12-.21.146-.35.026.14.07.267.145.35.163.178.662-.057.673-.778.012-.722-.816-1.477-.816-1.477s-.831.755-.82 1.477c.01.721.51.956.673.778zm-4.34-2.683c.538.383 3.304.916 3.522-.474.135-.857-2.31-2.187-3.208-2.052-.897.135-.897 2.11-.314 2.526z" />
</svg>