<?xml version="1.0" encoding="UTF-8"?>
<!DOCTYPE svg PUBLIC "-//W3C//DTD SVG 1.0//EN" "http://www.w3.org/TR/2001/REC-SVG-20010904/DTD/svg10.dtd">
<!-- Creator: CorelDRAW X8 -->
<svg xmlns="http://www.w3.org/2000/svg" xml:space="preserve" width="24.9767mm" height="9.99067mm" version="1.0" shape-rendering="geometricPrecision" text-rendering="geometricPrecision" image-rendering="optimizeQuality" fill-rule="evenodd" clip-rule="evenodd"
viewBox="0 0 2498 999"
xmlns:xlink="http://www.w3.org/1999/xlink">
<g id="Layer_x0020_1">
<g id="_1716800884480">
<path fill="#FFFFFF" d="M1249 962c2,-3 4,-5 6,-7 13,-14 28,-23 40,-35 7,-7 3,-16 -1,-23 -9,-15 -20,-26 -29,-43 -11,-21 -15,-30 -31,-50 -18,-22 -25,-32 -39,-57 -15,-28 -24,-42 -43,-67 -41,-51 -44,-66 -61,-128 -7,-25 -15,-42 -26,-65 -14,-32 -9,-43 -10,-75 -1,-4 -1,-12 -5,-15 -10,-1 -19,-2 -29,-4 -2,-13 -2,-20 -1,-33 134,-1 270,0 405,0 86,0 173,0 260,0 8,0 31,3 36,-3 8,-10 -4,-32 20,-32 10,-1 21,0 31,0 201,0 402,0 602,0l3 0c9,0 45,2 50,-1 6,-3 3,-32 2,-39 0,-27 1,-53 1,-79 0,-31 -12,-16 -28,-26 -15,-10 -1,-31 -13,-32 -14,0 -32,1 -47,1 -191,0 -382,0 -573,0 -9,0 -31,2 -38,-2 -13,-8 2,-32 -19,-33 -7,-1 -12,0 -20,-1 -3,0 -2,1 -3,-5 0,-10 0,-26 0,-37 0,-21 0,-42 0,-63l-70 0 0 70c-353,0 -705,0 -1058,0 -6,0 -29,2 -32,-2 -7,-8 3,-30 -15,-33 -8,-2 -31,0 -41,0 -10,0 -40,-3 -48,2 -7,5 -4,21 -6,30 0,3 0,2 -4,3 -6,1 -36,0 -44,0 -42,0 -85,0 -127,0l0 106c-12,0 -93,1 -98,0 -15,-4 1,-36 -26,-37 -21,0 -15,20 -18,33 -1,3 0,3 -4,4 -4,1 -24,0 -30,0 0,114 0,229 0,343 0,9 -3,36 3,42 6,6 32,4 41,4 32,0 27,-6 26,-36 -1,-12 -1,-24 0,-35 0,-18 3,-30 21,-35 15,-5 16,-7 16,-23 0,-9 -4,-41 1,-46 3,-4 40,-2 48,-2l2 0c39,0 78,-1 117,0 8,0 7,-1 7,7 0,9 0,19 0,28 19,0 39,0 58,0 12,0 13,0 13,12 1,15 5,47 -10,55 -18,8 -20,2 -26,25 -7,23 -5,24 -19,46 -10,16 -13,22 -21,39 -7,17 -13,24 -21,39 -13,22 -13,48 -10,74 1,9 2,16 7,24l1 1c15,12 22,14 36,30 31,35 39,45 89,47 70,1 25,-59 67,-74 13,-5 12,-2 12,-21 0,-29 -11,-82 28,-87 9,-1 5,2 6,-11 3,-35 -1,-66 0,-100 1,-31 8,-26 35,-31 2,-12 2,-21 2,-33 44,-1 87,0 131,0 15,0 30,0 45,0 0,5 -1,31 1,33 2,5 35,3 41,3 7,0 61,1 63,-2 6,-8 -12,-40 19,-34 18,5 17,30 20,45 5,23 19,36 29,56 8,15 15,32 23,48 15,31 30,62 45,93 20,43 37,80 66,118 17,23 29,39 43,64 19,33 40,65 70,90 30,24 38,6 56,-18z"/>
<path fill="#FFFFFF" d="M667 491c24,0 47,0 71,0 0,12 0,24 -1,35 -16,1 -36,1 -52,1 -6,0 -12,0 -18,0l0 -36zm-35 6c0,10 0,19 -1,29 -31,1 -39,3 -32,-33 10,-2 22,-3 32,-1l1 5zm-25 -41c-18,0 -8,3 -11,27 -3,19 -32,-7 -36,31 -1,13 -4,76 8,81 14,5 91,2 111,2l3 0c30,0 61,0 91,0 0,-9 -1,-58 0,-63 4,-14 28,-2 34,-12 4,-8 5,-26 -7,-30 -6,-1 -22,0 -25,-3 -3,-2 -2,-28 -2,-33 -33,-1 -67,0 -99,0 -23,0 -45,0 -67,0z"/>
</g>
</g>
</svg>
